<svg xmlns="http://www.w3.org/2000/svg" viewBox="0 0 1000 990"><mask id="mask"><path d="M1000,0H0V718.31H179.2c38.38,142.38,167.45,247.1,320.8,247.1s282.42-104.72,320.8-247.1H1000Z" fill="white"></path></mask><g mask="url(#mask)"><circle cx="500" cy="630.1601" r="332.441995" fill="#85c5e5"></circle><g style="transform-origin: center center 0px;" transform="scale(1.12)"><path d="M225.35,498c183.42,77.95,371.14,79.06,555.94,0,17.53-7.5,17.43-139.87,0-133.81-180.47,62.83-371.33,63.5-555.94,0C203.39,356.6,205.53,489.53,225.35,498Z" fill="#592d3d" stroke="#592d3d" stroke-miterlimit="10" stroke-width="12px"></path></g><path d="M501.71,209.52c-166.14,0-300.83,134.68-300.83,300.83V673.78c9.48,10.52,25.37,19.57,46,27.19L260.2,661.2l14.46,48.46c152.76,40.64,466.71,25.28,527.88-35.88V510.35C802.54,344.2,667.85,209.52,501.71,209.52Z" fill="#592d3d"></path><path d="M242.87,699.45c1.32.51,2.65,1,4,1.52L260.2,661.2l14.46,48.46c45.22,12,104.55,19.15,167.28,21.63l27.28-26.22L235.81,529.43S229.67,630.88,242.87,699.45Z" fill="#592d3d"></path><path d="M617.2,552.78l25.31,170.76c34.8-4.34,66.62-10.27,93.11-17.73h0s33.09-36.89,29.52-176.38S617.2,552.78,617.2,552.78Z" fill="#592d3d"></path><path d="M501.71,209.52c-166.14,0-300.83,134.68-300.83,300.83V673.78c9.48,10.52,25.37,19.57,46,27.19L260.2,661.2l14.46,48.46c152.76,40.64,466.71,25.28,527.88-35.88V510.35C802.54,344.2,667.85,209.52,501.71,209.52Z" fill="none" stroke="#592d3d" stroke-miterlimit="10" stroke-width="12px"></path><path d="M610,758.72c90.76,0,72,114.24,72.87,241.28H610Z" fill="#D8985D"></path><path d="M632.74,831.87,610,870l11.38,130h31.76C653.91,819.73,632.74,831.87,632.74,831.87Z" fill="#C6854E"></path><path d="M233.25,500c0-147.32,119.43-266.75,266.75-266.75S766.75,352.68,766.75,500A266.22,266.22,0,0,1,668.1,707.12q-8.21,6.68-16.94,12.69C591,758,515,758,446.39,751.89c-6.66-1-13.3-2.26-19.89-3.71-26.33-5.8-51.82-14.75-75.37-27.8Q342.4,715,334.2,708.76a199.59,199.59,0,0,1-15.8-13.38q-7.14-6.63-13.79-13.78A265.86,265.86,0,0,1,233.25,500Z" fill="#D8985D"></path><path d="M269.61,634.48c.7,1.2,1.39,2.4,2.11,3.58.43.72.88,1.42,1.33,2.14.66,1.07,1.32,2.14,2,3.19.48.76,1,1.5,1.46,2.24.66,1,1.32,2,2,3,.51.76,1,1.52,1.56,2.28.66,1,1.32,1.92,2,2.88.54.77,1.1,1.53,1.65,2.3s1.34,1.85,2,2.77,1.15,1.53,1.73,2.29,1.37,1.8,2.07,2.7,1.19,1.51,1.79,2.26,1.41,1.76,2.12,2.63,1.23,1.49,1.85,2.23,1.44,1.72,2.17,2.57,1.27,1.47,1.91,2.2l2.22,2.5c.65.73,1.31,1.44,2,2.16.86.94,1.73,1.87,2.6,2.79l1.21,1.28c1.29,1.34,2.59,2.68,3.91,4l.26.27c1.29,1.28,2.6,2.55,3.91,3.81l1.58,1.5c.95.89,1.9,1.78,2.86,2.66l1.16,1.06c1,.94,2.09,1.86,3.14,2.78q4.9,4.27,10,8.19,8.19,6.24,16.93,11.62c23.55,13,49,22,75.37,27.8,6.59,1.45,13.23,2.7,19.89,3.71,42.1,3.75,87,5.18,129.28-3.08C508.45,729,185.59,612.74,388.8,257.48h0c-2.72,1.25-5.4,2.54-8.06,3.88l-.59.29c-1.22.61-2.44,1.24-3.65,1.88l-1,.53c-3.76,2-7.48,4.07-11.13,6.23l-.9.53c-1.16.69-2.31,1.39-3.46,2.1l-.87.54q-5.36,3.35-10.55,6.93l-1.08.75c-1.09.76-2.16,1.52-3.23,2.29l-.66.47q-3.27,2.39-6.46,4.84l-.62.48c-1,.78-2,1.58-3,2.39l-1.17.94c-1,.81-2,1.62-3,2.45l0,0c-2.11,1.75-4.19,3.55-6.24,5.37l-1.14,1-2.69,2.45L318,305q-4.28,4-8.37,8.17l-1.38,1.41c-.79.82-1.58,1.64-2.36,2.47-.46.49-.92,1-1.37,1.48q-2.06,2.2-4.06,4.46c-.45.51-.91,1-1.36,1.54-.71.81-1.41,1.63-2.11,2.45l-1.51,1.79c-.68.81-1.36,1.62-2,2.44-.54.66-1.08,1.33-1.61,2-1.07,1.33-2.12,2.66-3.16,4-.54.7-1.08,1.4-1.61,2.11s-1.2,1.59-1.79,2.4-1.07,1.45-1.59,2.18-1.13,1.55-1.68,2.33q-1.42,2-2.8,4.05c-.5.73-1,1.48-1.49,2.22s-1.1,1.66-1.64,2.5l-1.49,2.31-1.68,2.71c-.43.69-.86,1.38-1.28,2.07-.89,1.46-1.75,2.93-2.61,4.4l-1.22,2.16c-.54.95-1.08,1.91-1.61,2.87-.4.73-.8,1.46-1.19,2.19-.64,1.19-1.27,2.39-1.9,3.59l-1.2,2.34c-.64,1.28-1.28,2.55-1.91,3.84-.33.69-.67,1.39-1,2.09-.52,1.09-1,2.19-1.53,3.29-.31.66-.61,1.32-.91,2q-1.11,2.47-2.17,5c-.22.52-.43,1.05-.65,1.57-.53,1.27-1.05,2.54-1.56,3.82-.27.67-.53,1.34-.79,2-.5,1.26-1,2.53-1.45,3.8-.21.55-.42,1.1-.62,1.65q-.94,2.63-1.85,5.26l-.56,1.7q-.66,2-1.29,4l-.6,1.91c-.47,1.54-.93,3.08-1.37,4.63-.1.33-.2.66-.29,1q-.78,2.76-1.5,5.54c-.16.59-.3,1.19-.45,1.78-.35,1.39-.69,2.78-1,4.18l-.42,1.75c-.43,1.9-.85,3.8-1.24,5.71l-.15.77q-.51,2.55-1,5.1c-.11.61-.21,1.21-.32,1.82-.26,1.49-.51,3-.74,4.5-.08.51-.17,1-.24,1.52-.3,1.95-.57,3.91-.83,5.88l-.15,1.3c-.2,1.59-.38,3.19-.55,4.79-.06.6-.13,1.2-.19,1.81-.16,1.68-.31,3.37-.45,5.06,0,.35-.06.69-.08,1q-.22,3-.39,6.05c0,.53,0,1.07-.07,1.6q-.1,2.36-.18,4.71c0,.59,0,1.18,0,1.77,0,2.05-.08,4.11-.08,6.17,0,0,0,.07,0,.1,0,2.22,0,4.42.08,6.62,0,.76.06,1.52.08,2.28.05,1.47.1,2.94.17,4.41,0,.89.11,1.77.16,2.66.08,1.33.15,2.66.25,4,.07,1,.16,1.89.24,2.83.11,1.26.21,2.52.34,3.77.09,1,.21,1.94.31,2.91.14,1.21.27,2.43.42,3.64.12,1,.26,2,.39,2.95.16,1.18.32,2.37.5,3.55.15,1,.31,2,.47,3,.18,1.16.37,2.33.57,3.49.18,1,.36,2,.55,3,.21,1.15.43,2.3.65,3.44s.41,2,.62,3c.24,1.14.48,2.27.74,3.4s.44,2,.68,2.93c.26,1.13.54,2.25.82,3.36s.49,1.95.74,2.91c.3,1.12.6,2.23.91,3.34.26,1,.53,1.92.81,2.87.32,1.11.65,2.21,1,3.31s.58,1.89.88,2.84.7,2.19,1.06,3.28.62,1.87.94,2.8c.38,1.09.76,2.18,1.15,3.27.33.91.65,1.83,1,2.74l1.24,3.27c.35.89.69,1.79,1,2.68.44,1.09.89,2.19,1.34,3.28.36.86.71,1.73,1.08,2.59.47,1.12,1,2.22,1.45,3.33.37.82.73,1.65,1.1,2.47.52,1.16,1.07,2.3,1.6,3.44l1.08,2.3c.61,1.26,1.24,2.5,1.87,3.75.32.63.62,1.27.95,1.9q2.88,5.61,6,11.07C268.88,633.26,269.25,633.87,269.61,634.48Z" fill="#C6854E"></path><path d="M233.25,500c0-147.32,119.43-266.75,266.75-266.75S766.75,352.68,766.75,500A266.22,266.22,0,0,1,668.1,707.12q-8.21,6.68-16.94,12.69C591,758,515,758,446.39,751.89c-6.66-1-13.3-2.26-19.89-3.71-26.33-5.8-51.82-14.75-75.37-27.8Q342.4,715,334.2,708.76a199.59,199.59,0,0,1-15.8-13.38q-7.14-6.63-13.79-13.78A265.86,265.86,0,0,1,233.25,500Z" fill="none" stroke="#592d3d" stroke-miterlimit="10" stroke-width="12px"></path><path d="M386.12,758.72c-90.77,0-72,114.24-72.87,241.28h72.87Z" fill="#D8985D"></path><path d="M367.23,831.87,390,870l-11.39,130H346.88C346.07,819.73,367.23,831.87,367.23,831.87Z" fill="#C6854E"></path><path d="M619.47,1070H380.53a13.28,13.28,0,0,1-13.27-13.28V772a13.28,13.28,0,0,1,13.27-13.28H613.76c13.09,0,19,7.66,19,19.88v278.08A13.28,13.28,0,0,1,619.47,1070Z" fill="#D8985D"></path><path d="M629.05,766.62a19.33,19.33,0,0,1-2.51-4,17.25,17.25,0,0,0-8.28-3.51,28.88,28.88,0,0,0-4.5-.34H380.53A13.28,13.28,0,0,0,367.26,772c29,10.42,83.29,16.24,132.74,16.24C563.06,788.24,604.38,778.89,629.05,766.62Z" fill="#C6854E"></path><path d="M610,758.72c90.76,0,72,114.24,72.87,241.28H632.74" fill="none" stroke="#592d3d" stroke-linecap="square" stroke-miterlimit="10" stroke-width="12px"></path><path d="M386.12,758.72c-90.77,0-72,114.24-72.87,241.28h50.07" fill="none" stroke="#592d3d" stroke-linecap="square" stroke-miterlimit="10" stroke-width="12px"></path><path d="M380.53,758.82l233.23-.1" fill="none" stroke="#592d3d" stroke-miterlimit="10" stroke-width="12px"></path><path d="M380.53,1070H497.15C388,1070,396.24,838.82,367.26,838.82v217.86A13.28,13.28,0,0,0,380.53,1070Z" fill="#C6854E"></path><path d="M361.26,860.85c-.19-3.67-.11-7.34.05-11s.47-7.35.86-11c.2-1.84.4-3.67.65-5.51s.49-3.67.85-5.51a44.18,44.18,0,0,1,3.59-11,44.18,44.18,0,0,1,3.59,11c.36,1.84.62,3.67.85,5.51s.45,3.67.65,5.51c.38,3.67.68,7.34.85,11s.25,7.34.06,11Z" fill="#592d3d"></path><path d="M632.74,870v8c.26,34,.26,69,0,102.75,0,2.87,0,5.72,0,8.53v67.41A13.28,13.28,0,0,1,619.47,1070H380.53a13.28,13.28,0,0,1-13.27-13.28V998.52c0-2.51,0-5.07,0-7.65-.25-34.87-.25-69.87,0-105.3V860.85" fill="none" stroke="#592d3d" stroke-miterlimit="10" stroke-width="12px"></path><path d="M626.74,870c-.19-4.17-.1-8.35.06-12.53s.47-8.35.85-12.53c.2-2.09.41-4.18.65-6.27s.49-4.17.85-6.26a55.09,55.09,0,0,1,3.59-12.53,55.09,55.09,0,0,1,3.59,12.53c.36,2.09.62,4.18.85,6.26s.45,4.18.65,6.27c.38,4.18.69,8.35.85,12.53s.25,8.36.06,12.53Z" fill="#592d3d"></path><path d="M570.68,842.45C570.9,833,582.9,829,588.9,835a10.61,10.61,0,1,1-15.16,14.85A10.4,10.4,0,0,1,570.68,842.45Z" fill="#592d3d"></path><path d="M408.11,842.15C407.9,834,416.9,830,422.9,833c8,3,8,14,0,19-4,2-8,0-11.75-2.48A10.39,10.39,0,0,1,408.11,842.15Z" fill="#592d3d"></path><path d="M500,831.77a27.13,27.13,0,0,1,1.5,5.84,42.47,42.47,0,0,1,.49,5.84l.3,11.69c.09,3.89.21,7.79.25,11.69l.17,11.67c.23,15.57.22,31.16.28,46.74s.18,31.16,0,46.74c-.09,7.79-.3,15.58-.53,23.37-.1,3.89-.29,7.79-.67,11.68a92.5,92.5,0,0,1-1.77,11.69,92.5,92.5,0,0,1-1.77-11.69c-.38-3.89-.57-7.79-.67-11.68-.23-7.79-.44-15.58-.53-23.37-.2-15.58,0-31.16,0-46.74s0-31.15.18-46.73l.17-11.7.33-11.68.33-11.68a44.11,44.11,0,0,1,.5-5.84A27.13,27.13,0,0,1,500,831.77Z" fill="#C6854E"></path><path d="M425.22,883a18.51,18.51,0,0,1,4.67-1.5,29.75,29.75,0,0,1,4.68-.5l9.35-.33,18.7-.41c12.46-.19,24.91-.24,37.38-.27s24.93-.16,37.39,0c6.23.09,12.46.3,18.7.53,3.11.11,6.23.3,9.34.67a61.34,61.34,0,0,1,9.35,1.78,59.17,59.17,0,0,1-9.35,1.77c-3.11.38-6.23.57-9.34.67-6.24.23-12.47.43-18.7.52-12.46.19-24.92,0-37.39,0s-24.93,0-37.4-.15c-6.23-.06-12.46-.26-18.68-.5l-9.35-.34a29.5,29.5,0,0,1-4.67-.5A18.45,18.45,0,0,1,425.22,883Z" fill="#C6854E"></path><path d="M442.41,914.38a12.51,12.51,0,0,1,3.74-1.11,18.35,18.35,0,0,1,3.62-.15c2.39.1,4.78.16,7.17.21,4.78.11,9.56.15,14.34.17,9.63,0,19.09.08,28.76-.21s19.26-.43,28.88-.39c4.81,0,9.62.13,14.42.24a70.37,70.37,0,0,1,7.23.47,38.17,38.17,0,0,1,7.27,1.53,36.56,36.56,0,0,1-7.16,2,61.08,61.08,0,0,1-7.21.86c-4.82.35-9.64.65-14.45.82-9.64.36-19.27.32-28.88.45-4.81,0-9.61.22-14.48.1s-9.69-.13-14.52-.31-9.68-.58-14.5-1.08c-2.42-.27-4.82-.57-7.23-.9a16.82,16.82,0,0,1-3.57-.84A11.51,11.51,0,0,1,442.41,914.38Z" fill="#C6854E"></path><path d="M438.93,949.87a13.07,13.07,0,0,1,3.82-1.5,19.13,19.13,0,0,1,3.82-.49l7.63-.32c5.09-.18,10.19-.33,15.28-.41C479.66,947,489.84,947,500,947s20.36-.17,30.54,0c5.09.09,10.18.3,15.27.53a72.73,72.73,0,0,1,7.63.66A41.2,41.2,0,0,1,561.1,950a41.25,41.25,0,0,1-7.63,1.77,70.34,70.34,0,0,1-7.64.67c-5.09.23-10.18.44-15.27.53-10.18.2-20.37.06-30.55,0s-20.36-.06-30.54-.25c-5.09-.1-10.19-.28-15.28-.49l-7.63-.37a19.33,19.33,0,0,1-3.82-.5A12.85,12.85,0,0,1,438.93,949.87Z" fill="#C6854E"></path><path d="M677.8,906.35c.21-37.11-1.21-70.07-7.73-95.39C660,785.6,641.89,770.48,610,770.48L632.79,905S655.31,915.24,677.8,906.35Z" fill="#C6854E"></path><path d="M686.41,895.79a20.31,20.31,0,0,1-3.7,2.43" fill="none" stroke="#592d3d" stroke-linecap="square" stroke-miterlimit="10" stroke-width="12px"></path><path d="M326.11,809.88c-6.83,25.57-8,59.13-7.74,97,19.9,8.54,50.42-2.15,50.42-2.15l17.33-132.24C355.25,772.46,336.85,786.36,326.11,809.88Z" fill="#C6854E"></path><path d="M613.76,758.72H559.55v.1a62.78,62.78,0,0,1-1.44,13.39,60.92,60.92,0,0,1-1.74,6.33,50.88,50.88,0,0,1-10,16.83,48.2,48.2,0,0,1-4.5,4.43c-25.17,18.2-65.17,19.2-89.48-.58a51.79,51.79,0,0,1-7.11-7.6,50.84,50.84,0,0,1-9.1-19.41,62.41,62.41,0,0,1-1.07-6.59,61,61,0,0,1-.37-6.8v-.1H380.53A13.28,13.28,0,0,0,367.26,772v284.68A13.28,13.28,0,0,0,380.53,1070H619.47a13.28,13.28,0,0,0,13.27-13.28V778.6C632.74,766.38,626.85,758.72,613.76,758.72Z" fill="#633749"></path><path d="M610,758.72c63.54,0,73.4,56,73.9,133.17-18.6,11.62-48.91,1.31-48.91,1.31Z" fill="#633749"></path><path d="M632.74,831.87,610,870l11.38,130h11.61V894.35l17.28,2.89C644.6,825.07,632.74,831.87,632.74,831.87Z" fill="#5E3244"></path><path d="M386.12,758.72c-61.78,0-75.83,53.8-76.85,127.66,19,19.86,58,4.58,58,4.58Z" fill="#633749"></path><path d="M367.23,831.87V891l-17.31,4.31C355.59,825.19,367.23,831.87,367.23,831.87Z" fill="#5E3244"></path><path d="M610,758.72c67.41,0,78.45,56.29,78.9,133.78-26.2,12.43-53.91.7-53.91.7" fill="none" stroke="#592d3d" stroke-linecap="square" stroke-miterlimit="10" stroke-width="12px"></path><path d="M386.12,758.72c-66.79,0-80.08,54.7-80.76,130.72C326,904.22,367.22,891,367.22,891" fill="none" stroke="#592d3d" stroke-linecap="square" stroke-miterlimit="10" stroke-width="12px"></path><path d="M380.53,1070H497.15C388,1070,396.24,838.82,367.26,838.82v217.86A13.28,13.28,0,0,0,380.53,1070Z" fill="#5E3244"></path><path d="M361.26,860.85c-.19-3.67-.11-7.34.05-11s.47-7.35.86-11c.2-1.84.4-3.67.65-5.51s.49-3.67.85-5.51a44.18,44.18,0,0,1,3.59-11,43.74,43.74,0,0,1,3.58,11c.37,1.84.63,3.67.86,5.51s.45,3.67.65,5.51c.38,3.67.68,7.34.85,11s.25,7.34.06,11Z" fill="#592d3d"></path><path d="M632.74,870v8c.26,34,.26,69,0,102.75,0,2.87,0,5.72,0,8.53v67.41A13.28,13.28,0,0,1,619.47,1070H380.53a13.28,13.28,0,0,1-13.27-13.28V998.52c0-2.51,0-5.07,0-7.65-.25-34.87-.25-69.87,0-105.3V860.85" fill="none" stroke="#592d3d" stroke-miterlimit="10" stroke-width="12px"></path><path d="M626.74,870c-.19-4.17-.1-8.35.06-12.53s.47-8.35.85-12.53c.2-2.09.41-4.18.65-6.27s.49-4.17.86-6.26a54.55,54.55,0,0,1,3.58-12.53,55.09,55.09,0,0,1,3.59,12.53c.36,2.09.62,4.18.85,6.26s.45,4.18.65,6.27c.38,4.18.69,8.35.85,12.53s.25,8.36.06,12.53Z" fill="#592d3d"></path><path d="M380.53,758.82l233.23-.1" fill="none" stroke="#592d3d" stroke-miterlimit="10" stroke-width="12px"></path><path d="M559.55,758.82a62.78,62.78,0,0,1-1.44,13.39,60.92,60.92,0,0,1-1.74,6.33,50.88,50.88,0,0,1-10,16.83,48.2,48.2,0,0,1-4.5,4.43c-25.17,18.2-65.17,19.2-89.48-.58a51.79,51.79,0,0,1-7.11-7.6,50.84,50.84,0,0,1-9.1-19.41,62.41,62.41,0,0,1-1.07-6.59,61,61,0,0,1-.37-6.8" fill="none" stroke="#592d3d" stroke-miterlimit="10" stroke-width="12px"></path><path d="M503.4,828.39a66.61,66.61,0,0,1-18.39,1.1,69.79,69.79,0,0,1-18.2-3.76,61.46,61.46,0,0,1-16.5-8.64l-1.86-1.41c-.61-.48-1.2-1-1.79-1.52a32.24,32.24,0,0,1-3.33-3.28,43.83,43.83,0,0,1-5.38-7.51,87.37,87.37,0,0,0,6.74,6.09c.58.48,1.17.95,1.75,1.4s1.23.82,1.84,1.24,1.22.84,1.85,1.23l1.91,1.16a88.05,88.05,0,0,0,16.1,7.46,106.26,106.26,0,0,0,17.25,4.45A173.7,173.7,0,0,0,503.4,828.39Z" fill="#592d3d"></path><path d="M307.83,892.5a24.54,24.54,0,0,0,3.68,2.77" fill="none" stroke="#592d3d" stroke-linecap="square" stroke-miterlimit="10" stroke-width="12px"></path><path d="M674.7,882.69a19.88,19.88,0,0,1-6.76,2.52,34.83,34.83,0,0,1-7.2.65,40.16,40.16,0,0,1-7.18-.79c-1.18-.21-2.33-.56-3.49-.87s-2.27-.77-3.37-1.24c1.21,0,2.38.18,3.56.28l3.52.29c1.17,0,2.33.2,3.5.21s2.32.11,3.48.12q3.5.06,7-.19A49.31,49.31,0,0,0,674.7,882.69Z" fill="#592d3d"></path><path d="M566.88,917.83c0-8.86-11.1-17.26-28.11-22.47,3.93-17.34,2.18-31.13-5.51-35.55a9.56,9.56,0,0,0-6.08-1.56c-8,.13-17.31,5.35-27.23,14.62C490,863.65,479,858.2,472.71,858.36c-3.16.09-4.37.52-6.16,1.56-7.67,4.41-9.38,18.18-5.43,35.47-17,5.23-28,13.61-28,22.44s11.1,17.26,28.11,22.47c-3.93,17.34-2.18,31.13,5.51,35.55a11.93,11.93,0,0,0,6.13,1.53c7.5,0,17.31-5.35,27.24-14.62,9.92,9.22,19.74,14.51,27.24,14.51a12.11,12.11,0,0,0,6.16-1.53c7.66-4.42,9.38-18.19,5.42-35.47C555.84,935.06,566.88,926.66,566.88,917.83Zm-39.72-53.49v0a6.32,6.32,0,0,1,3.1.71c3.71,2.13,5.32,10.23,4.07,20.64-.3,2.56-.79,5.26-1.39,8a133,133,0,0,0-17.32-3,132.78,132.78,0,0,0-11.34-13.63C513.16,868.87,521.49,864.35,527.16,864.34Zm-51.32,67.45q1.92,3.27,3.93,6.38c-3.87-.57-7.61-1.28-11.18-2.15,1-3.52,2.26-7.15,3.68-10.77C473.39,927.43,474.56,929.61,475.84,931.79Zm-7.33-32.15c3.57-.84,7.33-1.58,11.23-2.15-1.33,2.1-2.67,4.25-3.92,6.46s-2.43,4.36-3.55,6.54A114.8,114.8,0,0,1,468.51,899.64Zm6.95,18.27c1.69-3.65,3.6-7.31,5.65-10.88s4.3-7.17,6.57-10.41c4.06-.36,8.18-.55,12.32-.55s8.23.19,12.27.52c2.26,3.24,4.47,6.71,6.6,10.36s4,7.2,5.67,10.85c-1.72,3.66-3.6,7.31-5.65,10.88s-4.3,7.17-6.57,10.42c-4.06.35-8.18.54-12.32.54s-8.23-.19-12.27-.52c-2.26-3.24-4.47-6.7-6.6-10.36S477.18,921.56,475.46,917.91Zm48.7,13.8c1.25-2.18,2.42-4.39,3.54-6.57A114.8,114.8,0,0,1,531.46,936c-3.57.87-7.33,1.61-11.23,2.18C521.57,936.07,522.9,933.92,524.16,931.71Zm0-27.84c-1.25-2.18-2.59-4.31-3.93-6.38q5.82.85,11.18,2.15c-1,3.52-2.26,7.15-3.68,10.77C526.58,908.23,525.41,906.05,524.13,903.87ZM507.5,890.15c-2.46-.1-5-.19-7.5-.19s-5.1.06-7.58.19a105.71,105.71,0,0,1,7.5-8.72A114.37,114.37,0,0,1,507.5,890.15Zm-37.93-25a6.08,6.08,0,0,1,3.14-.71v0c5.64,0,14,4.5,22.9,12.71a129.42,129.42,0,0,0-11.26,13.6,129.07,129.07,0,0,0-17.34,3c-.63-2.72-1.09-5.37-1.42-7.9C464.31,875.43,465.89,867.33,469.57,865.18Zm-6.87,69.23c-2.7-.85-5.26-1.78-7.63-2.78-9.66-4.12-15.9-9.52-15.9-13.8s6.24-9.71,15.9-13.8c2.34-1,4.9-1.91,7.55-2.75a130.83,130.83,0,0,0,6.13,16.6A130.68,130.68,0,0,0,462.7,934.41Zm10.12,36.91a6.43,6.43,0,0,1-3.08-.73c-3.71-2.13-5.32-10.23-4.07-20.64.3-2.57.79-5.26,1.39-8a131.33,131.33,0,0,0,17.32,3,131.87,131.87,0,0,0,11.34,13.64C486.83,966.8,478.49,971.32,472.82,971.32Zm27.23-17.09a114.59,114.59,0,0,1-7.58-8.73c2.46.11,5,.19,7.5.19s5.1-.05,7.58-.19A105.91,105.91,0,0,1,500.05,954.23Zm30.38,16.25a6.08,6.08,0,0,1-3.14.71c-5.64,0-14-4.5-22.9-12.71a129.42,129.42,0,0,0,11.26-13.6,129.07,129.07,0,0,0,17.34-3,75.63,75.63,0,0,1,1.42,7.93C535.69,960.23,534.11,968.32,530.43,970.48Zm14.48-38.85c-2.35,1-4.91,1.9-7.56,2.75a131.52,131.52,0,0,0-6.13-16.61,129,129,0,0,0,6-16.52c2.7.85,5.26,1.77,7.66,2.78,9.66,4.12,15.9,9.52,15.9,13.8S554.56,927.54,544.91,931.63Z" stroke="#ffffff" stroke-width="16px"></path><circle cx="499.97" cy="917.83" r="12.46" stroke="#ffffff" stroke-width="24px"></circle><path d="M566.88,917.83c0-8.86-11.1-17.26-28.11-22.47,3.93-17.34,2.18-31.13-5.51-35.55a9.56,9.56,0,0,0-6.08-1.56c-8,.13-17.31,5.35-27.23,14.62C490,863.65,479,858.2,472.71,858.36c-3.16.09-4.37.52-6.16,1.56-7.67,4.41-9.38,18.18-5.43,35.47-17,5.23-28,13.61-28,22.44s11.1,17.26,28.11,22.47c-3.93,17.34-2.18,31.13,5.51,35.55a11.93,11.93,0,0,0,6.13,1.53c7.5,0,17.31-5.35,27.24-14.62,9.92,9.22,19.74,14.51,27.24,14.51a12.11,12.11,0,0,0,6.16-1.53c7.66-4.42,9.38-18.19,5.42-35.47C555.84,935.06,566.88,926.66,566.88,917.83Zm-39.72-53.49v0a6.32,6.32,0,0,1,3.1.71c3.71,2.13,5.32,10.23,4.07,20.64-.3,2.56-.79,5.26-1.39,8a133,133,0,0,0-17.32-3,132.78,132.78,0,0,0-11.34-13.63C513.16,868.87,521.49,864.35,527.16,864.34Zm-51.32,67.45q1.92,3.27,3.93,6.38c-3.87-.57-7.61-1.28-11.18-2.15,1-3.52,2.26-7.15,3.68-10.77C473.39,927.43,474.56,929.61,475.84,931.79Zm-7.33-32.15c3.57-.84,7.33-1.58,11.23-2.15-1.33,2.1-2.67,4.25-3.92,6.46s-2.43,4.36-3.55,6.54A114.8,114.8,0,0,1,468.51,899.64Zm6.95,18.27c1.69-3.65,3.6-7.31,5.65-10.88s4.3-7.17,6.57-10.41c4.06-.36,8.18-.55,12.32-.55s8.23.19,12.27.52c2.26,3.24,4.47,6.71,6.6,10.36s4,7.2,5.67,10.85c-1.72,3.66-3.6,7.31-5.65,10.88s-4.3,7.17-6.57,10.42c-4.06.35-8.18.54-12.32.54s-8.23-.19-12.27-.52c-2.26-3.24-4.47-6.7-6.6-10.36S477.18,921.56,475.46,917.91Zm48.7,13.8c1.25-2.18,2.42-4.39,3.54-6.57A114.8,114.8,0,0,1,531.46,936c-3.57.87-7.33,1.61-11.23,2.18C521.57,936.07,522.9,933.92,524.16,931.71Zm0-27.84c-1.25-2.18-2.59-4.31-3.93-6.38q5.82.85,11.18,2.15c-1,3.52-2.26,7.15-3.68,10.77C526.58,908.23,525.41,906.05,524.13,903.87ZM507.5,890.15c-2.46-.1-5-.19-7.5-.19s-5.1.06-7.58.19a105.71,105.71,0,0,1,7.5-8.72A114.37,114.37,0,0,1,507.5,890.15Zm-37.93-25a6.08,6.08,0,0,1,3.14-.71v0c5.64,0,14,4.5,22.9,12.71a129.42,129.42,0,0,0-11.26,13.6,129.07,129.07,0,0,0-17.34,3c-.63-2.72-1.09-5.37-1.42-7.9C464.31,875.43,465.89,867.33,469.57,865.18Zm-6.87,69.23c-2.7-.85-5.26-1.78-7.63-2.78-9.66-4.12-15.9-9.52-15.9-13.8s6.24-9.71,15.9-13.8c2.34-1,4.9-1.91,7.55-2.75a130.83,130.83,0,0,0,6.13,16.6A130.68,130.68,0,0,0,462.7,934.41Zm10.12,36.91a6.43,6.43,0,0,1-3.08-.73c-3.71-2.13-5.32-10.23-4.07-20.64.3-2.57.79-5.26,1.39-8a131.33,131.33,0,0,0,17.32,3,131.87,131.87,0,0,0,11.34,13.64C486.83,966.8,478.49,971.32,472.82,971.32Zm27.23-17.09a114.59,114.59,0,0,1-7.58-8.73c2.46.11,5,.19,7.5.19s5.1-.05,7.58-.19A105.91,105.91,0,0,1,500.05,954.23Zm30.38,16.25a6.08,6.08,0,0,1-3.14.71c-5.64,0-14-4.5-22.9-12.71a129.42,129.42,0,0,0,11.26-13.6,129.07,129.07,0,0,0,17.34-3,75.63,75.63,0,0,1,1.42,7.93C535.69,960.23,534.11,968.32,530.43,970.48Zm14.48-38.85c-2.35,1-4.91,1.9-7.56,2.75a131.52,131.52,0,0,0-6.13-16.61,129,129,0,0,0,6-16.52c2.7.85,5.26,1.77,7.66,2.78,9.66,4.12,15.9,9.52,15.9,13.8S554.56,927.54,544.91,931.63Z" fill="#61dafb"></path><circle cx="499.97" cy="917.83" r="12.46" fill="#61dafb"></circle><circle cx="341.06" cy="569.08" r="20.96" fill="#592d3d"></circle><path d="M340.93,586c1.79-.1,3.79-.26,5.7-.46s3.86-.44,5.79-.74,3.87-.65,5.81-1,3.92-.68,6-.83a24.74,24.74,0,0,1-5.31,3.12,48.86,48.86,0,0,1-5.78,2,50.61,50.61,0,0,1-6,1.36,36.13,36.13,0,0,1-6.24.54Z" fill="#592d3d"></path><circle cx="661.77" cy="569.08" r="20.96" fill="#592d3d"></circle><path d="M661.77,586c1.8-.1,3.79-.26,5.7-.46s3.87-.44,5.8-.74,3.87-.65,5.81-1,3.92-.68,6-.83a25,25,0,0,1-5.31,3.12,48.86,48.86,0,0,1-5.78,2,51.06,51.06,0,0,1-6,1.36,36.22,36.22,0,0,1-6.24.54Z" fill="#592d3d"></path><path d="M538.71,665.74c-15.55,0-25.12-12.76-36.48-12.76S476.31,665.74,461,665.74s-23.73-11.11-23.73-26.51c0-16.65,16.75-46.06,62.61-46.06s65.39,27.74,65.39,45.46C565.23,655,554.27,665.74,538.71,665.74Z" fill="#592d3d" stroke="#592d3d" stroke-miterlimit="10" stroke-width="12px"></path><path d="M511.14,655.25C506.58,643,491,635,473.29,636.57c-14.79,1.34-26.93,9.09-31.84,19.1,3.92,6.26,10.51,10.07,19.51,10.07,15.35,0,29.9-12.76,41.27-12.76A21.5,21.5,0,0,1,511.14,655.25Z" fill="#f28195"></path><path d="M455.06,628.66l.87-.35.73-.25c.47-.16.94-.28,1.41-.4a21.33,21.33,0,0,1,2.85-.53,24.24,24.24,0,0,1,5.84-.07,21.24,21.24,0,0,1,11.15,4.48,20.07,20.07,0,0,1,6.55,9.27,17.31,17.31,0,0,1,.2,10.44c-2.5-2.58-4.46-4.94-6.43-6.88a27.89,27.89,0,0,0-2.88-2.58,13.78,13.78,0,0,0-3-1.72,15.18,15.18,0,0,0-6.35-1.15,29.08,29.08,0,0,0-3.43.3c-.57.1-1.16.19-1.72.31l-.84.19-.39.08c-.09,0-.29.08-.22,0Z" fill="#592d3d"></path><path d="M289.63,652.2q6.38,8,13.32,15.47,6.76,7.26,14,14a204.78,204.78,0,0,0,16.07,13.62q8.34,6.34,17.24,11.82c24,13.28,49.91,22.39,76.71,28.3,6.7,1.47,13.46,2.74,20.24,3.77,69.83,6.22,147.18,6.22,208.41-32.65q8.88-6.12,17.25-12.91c15.56-12.65,28-26.65,40.9-44.33-83.93,0-138.94-94.73-207.41-94.73S367.92,652.2,289.63,652.2Z" fill="#C6854E"></path><path d="M291.53,666.4q6.25,7.85,13.08,15.2,6.64,7.14,13.79,13.78a199.59,199.59,0,0,0,15.8,13.38c5.46,4.16,11.12,8,16.93,11.62,23.55,13,49,22,75.37,27.8,6.59,1.45,13.23,2.7,19.89,3.71C515,758,591,758,651.16,719.81q8.73-6,16.94-12.69a268.58,268.58,0,0,0,41.39-42c-82.46,0-137.71-94.64-205-94.64S368.44,666.4,291.53,666.4Z" fill="#85c5e5" stroke="#592d3d" stroke-miterlimit="10" stroke-width="12px"></path><path d="M453.37,752.49l5.5.43,1.32.1c1.57.11,3.14.23,4.72.33l1.29.09,5.18.33,2,.12,5,.26,2.16.1,3.35.15,2.56.1,4.46.14,3,.08,2.41,0c1.73,0,3.46.06,5.19.08h1.91q5.58,0,11.16-.06l1.1,0c2.44,0,4.87-.11,7.3-.2h.28q6-.23,12-.62l.31,0c10.79-.73,21.53-1.92,32.13-3.68h0q4-.66,7.95-1.43c-33.29-9.82-129.24-43.29-193-117.69-29.32,19.08-59.55,35.28-91.16,35.28l.35.44,2.44,3,.75.9c.8,1,1.62,1.93,2.44,2.88l1.57,1.82.53.6c.65.74,1.31,1.49,2,2.22s1.31,1.44,2,2.16c.86.94,1.73,1.87,2.6,2.79l1.21,1.28c1.29,1.34,2.59,2.68,3.91,4l.26.27c1.29,1.28,2.6,2.55,3.91,3.81l1.58,1.5c.95.89,1.9,1.78,2.86,2.66l1.16,1.06c1,.94,2.09,1.86,3.14,2.78,1.54,1.35,3.1,2.66,4.68,3.95l.42.35q2.44,2,4.93,3.89c5.46,4.16,11.12,8,16.93,11.62a262,262,0,0,0,46.16,19.89c2.07.68,4.15,1.32,6.24,2q11.36,3.4,23,6,5.69,1.26,11.42,2.29c2.82.51,5.64,1,8.47,1.42l5.71.49Z" fill="#67B7D6"></path><path d="M579.81,624.61c-6.52-1.65-13-3.05-19.57-4.22s-13.09-2.18-19.63-3-13.12-1.45-19.68-1.89-13.14-.64-19.71-.65h-4.93l-4.93.13c-1.64,0-3.28.11-4.92.19s-3.29.13-4.92.26c-6.57.38-13.11,1.09-19.66,1.87a398,398,0,0,0-39.21,7.32,159.22,159.22,0,0,1,38.13-13.52c3.32-.66,6.64-1.41,10-1.88,1.68-.25,3.35-.56,5-.75l5.06-.6a192.24,192.24,0,0,1,20.36-1c6.79,0,13.59.39,20.34,1.11a193.91,193.91,0,0,1,20.08,3.25,180.43,180.43,0,0,1,19.57,5.41A118.4,118.4,0,0,1,579.81,624.61Z" fill="#592d3d"></path><path d="M364.82,686.87c11.06,3.46,22.25,6.26,33.51,8.69,2.81.59,5.63,1.2,8.45,1.76s5.64,1.12,8.48,1.58c5.66,1,11.32,2,17,2.77,11.38,1.57,22.76,2.94,34.2,3.74s22.88,1.26,34.33,1.29l8.59,0,8.58-.26c2.86,0,5.72-.22,8.58-.37s5.72-.26,8.57-.53c11.43-.76,22.81-2.16,34.18-3.69a531.12,531.12,0,0,0,67.44-15A312.64,312.64,0,0,1,570.36,708c-5.73,1-11.45,2.24-17.24,3-2.89.4-5.77.88-8.67,1.19l-8.7.94c-11.63,1-23.3,1.71-35,1.61s-23.35-.61-35-1.76-23.17-2.82-34.6-5.14a342.06,342.06,0,0,1-33.87-8.46A234,234,0,0,1,364.82,686.87Z" fill="#592d3d"></path><path d="M584.88,662.69c-14.62,1.67-29.24,2.5-43.86,3.13s-29.25.86-43.87.87-29.25-.27-43.87-.86-29.24-1.47-43.86-3.14c14.62-1.68,29.24-2.51,43.86-3.15s29.25-.86,43.87-.85,29.24.28,43.87.86S570.26,661,584.88,662.69Z" fill="#592d3d"></path><path d="M291.53,666.4q6.25,7.85,13.08,15.2,6.64,7.14,13.79,13.78a199.59,199.59,0,0,0,15.8,13.38c5.46,4.16,11.12,8,16.93,11.62,23.55,13,49,22,75.37,27.8,6.59,1.45,13.23,2.7,19.89,3.71C515,758,591,758,651.16,719.81q8.73-6,16.94-12.69a268.58,268.58,0,0,0,41.39-42c-82.46,0-137.71-94.64-205-94.64S368.44,666.4,291.53,666.4Z" fill="none" stroke="#592d3d" stroke-miterlimit="10" stroke-width="12px"></path><path d="M673,659s48.64-10.61,84.3-88.54" fill="none" stroke="#592d3d" stroke-miterlimit="10" stroke-width="12px"></path><path d="M330,659.06s-53.47-13.43-87-87.61" fill="none" stroke="#592d3d" stroke-miterlimit="10" stroke-width="12px"></path><rect x="290.23" y="414.02" width="439.24" height="64.15" fill="#C6854E"></rect><path d="M710,667.66q-4.71,5.82-9.71,11.37C697.79,681.8,702.87,677.91,710,667.66Zm15-316.55C694.5,296.7,641.5,259.24,580.22,242l-6.35-1.71c-22.7-6.28-46.62-7-71.32-7-26.69,0-52.46,2.74-76.77,10l-4.26,1.27A283.11,283.11,0,0,0,332.67,294q-4.37,3.58-8.57,7.32c-28.34,23.69-50.34,53.69-65.47,87.9q-2.2,4.92-4.16,9.93a212.31,212.31,0,0,0-9.41,30.61C213,556.34,262.89,634,307.17,681.6c4.37,4.7-57.93-101.85-17.42-216,7.73-.29,20.24-.51,36.19-.67l15.5-50.61,17.44,50.38c27.4-.13,59.88-.15,93.88-.12l12.32-52.36L479,464.6c74.37.14,151.44.52,195.28.77l13.2-52.17,15,52.33,8.21.05C760.78,572,728.5,641.13,710,667.66A265.62,265.62,0,0,0,769.3,500C769.3,413.58,725,351.11,725,351.11Z" fill="#592d3d"></path><path d="M710,667.66q-4.71,5.82-9.71,11.37C697.79,681.8,702.87,677.91,710,667.66Zm15-316.55C694.5,296.7,641.5,259.24,580.22,242l-6.35-1.71c-22.7-6.28-46.62-7-71.32-7-26.69,0-52.46,2.74-76.77,10l-4.26,1.27A283.11,283.11,0,0,0,332.67,294q-4.37,3.58-8.57,7.32c-28.34,23.69-50.34,53.69-65.47,87.9q-2.2,4.92-4.16,9.93a212.31,212.31,0,0,0-9.41,30.61C213,556.34,262.89,634,307.17,681.6c4.37,4.7-57.93-101.85-17.42-216,7.73-.29,20.24-.51,36.19-.67l15.5-50.61,17.44,50.38c27.4-.13,59.88-.15,93.88-.12l12.32-52.36L479,464.6c74.37.14,151.44.52,195.28.77l13.2-52.17,15,52.33,8.21.05C760.78,572,728.5,641.13,710,667.66A265.62,265.62,0,0,0,769.3,500C769.3,413.58,725,351.11,725,351.11Z" fill="none" stroke="#592d3d" stroke-miterlimit="10" stroke-width="12px"></path><path d="M584.15,228l-6.47-1.74c-25.21-7-50.93-7.55-75.13-7.55-30.59,0-57.07,3.49-80.91,10.64l-4.26,1.27-.49.15a299.89,299.89,0,0,0-93.42,52c-3,2.46-6,5-8.84,7.55-29.63,24.82-52.93,56.11-69.24,93-1.56,3.49-3,7.05-4.42,10.57-4.18,10.69-21.29,59.77-23.75,70.65l72.53,1c7.73-.29,20.24-.51,36.19-.67l15.5-50.61,17.44,50.38c27.4-.13,59.88-.15,93.88-.12l12.32-52.36L479,464.6c74.37.14,151.44.52,195.28.77l13.2-52.17,15,52.33,8.21.05L783.8,500c0-86.19-41.3-149-46.48-156.6C706,288,651.63,247,584.15,228ZM750.31,547.25c-3.17-25.92-11.17-55.26-26.51-87.84l-3.89-8.27-6.49,0-26.78-93.63L663,450.81c-40.43-.22-107.06-.54-172.86-.69l-25.95-97.57-22.94,97.5c-27.4,0-51.55,0-72.09.09L340.6,367.53l-25.42,83c-11.45.15-20.16.34-26,.56l-9.83.38-3.29,9.26C261.72,501.22,257.92,545,264.76,591c-15.9-40-22.46-91.39-5.65-157.63l.09-.38A197.7,197.7,0,0,1,268,404.47c1.2-3.09,2.51-6.22,3.91-9.35,14.54-32.86,35.24-60.67,61.51-82.63l.33-.29c2.65-2.35,5.39-4.69,8.14-6.95a270.41,270.41,0,0,1,84-46.87l4.05-1.2c21.12-6.34,44.87-9.43,72.6-9.43,22.22,0,45.73.51,67.45,6.52l6.38,1.71c60.24,17,108.53,53.27,136,102.23l.37.66.44.63c.42.59,41.61,59.63,41.61,140.5A252.08,252.08,0,0,1,750.31,547.25Z" fill="#592d3d"></path><path d="M710,667.66q-4.71,5.82-9.71,11.37C697.79,681.8,702.87,677.91,710,667.66ZM307.17,681.6c4.37,4.7-57.93-101.85-17.42-216,7.73-.29,20.24-.51,36.19-.67l15.5-50.61,17.44,50.38c27.4-.13,59.88-.15,93.88-.12l12.32-52.36L479,464.6c74.37.14,151.44.52,195.28.77l13.2-52.17,15,52.33,8.21.05C760.78,572,728.5,641.13,710,667.66" fill="none" stroke="#592d3d" stroke-miterlimit="10" stroke-width="12px"></path><path d="M284.48,462.85c.18-.75.33-1.32.53-1.94s.4-1.2.62-1.78c.46-1.17,1-2.31,1.51-3.42a48.48,48.48,0,0,1,3.85-6.42,37.51,37.51,0,0,1,4.88-5.75,17,17,0,0,1,7-4,31,31,0,0,1-.87,7.68c-.28,1.14-.59,2.25-.93,3.32l-1,3.25q-1,3.23-2,6.39c-.33,1.06-.68,2.09-1,3.13-.17.51-.37,1-.56,1.53s-.39,1-.56,1.4Z" fill="#592d3d"></path><path d="M710.68,459.58a35,35,0,0,1,6.23.06,60.73,60.73,0,0,1,6.24.86c1,.2,2.08.4,3.12.64a25.74,25.74,0,0,1,3.11.86,18.53,18.53,0,0,1,6.24,3.58,18.74,18.74,0,0,1-6.24,3.59,25.68,25.68,0,0,1-3.11.85c-1,.25-2.08.45-3.12.65q-3.12.58-6.24.86a35,35,0,0,1-6.23.05Z" fill="#592d3d"></path><path d="M444.84,452.07a134.88,134.88,0,0,1,1.49-14.25c.72-4.7,1.6-9.37,2.61-14s2.15-9.25,3.44-13.83A132.09,132.09,0,0,1,457,396.4a131.77,131.77,0,0,1-1.5,14.25q-1.08,7.05-2.61,14t-3.44,13.83A137,137,0,0,1,444.84,452.07Z" fill="#ffffff"></path><path d="M668,452.07a134.88,134.88,0,0,1,1.49-14.25q1.09-7.05,2.61-14T675.49,410a132.09,132.09,0,0,1,4.57-13.58,131.76,131.76,0,0,1-1.49,14.25q-1.1,7.05-2.61,14c-1,4.64-2.16,9.25-3.45,13.83A134.48,134.48,0,0,1,668,452.07Z" fill="#ffffff"></path><path d="M237.55,468.26a143,143,0,0,1,11.42-38" fill="#592d3d"></path><path d="M231.6,467.51c.09-1,.18-1.85.32-2.73s.29-1.72.46-2.58c.35-1.7.75-3.38,1.23-5a78.48,78.48,0,0,1,3.47-9.75,66.09,66.09,0,0,1,4.7-9.22,29.18,29.18,0,0,1,7.19-7.91,50.46,50.46,0,0,1-.48,10.43c-.25,1.63-.51,3.25-.83,4.84s-.58,3.19-.83,4.78l-1.63,9.49-.83,4.68c-.12.78-.28,1.56-.42,2.32s-.3,1.57-.44,2.19Z" fill="#592d3d"></path><path d="M769.33,496s-.46-20.78-8.37-47.63" fill="#592d3d"></path><path d="M763.33,496.12l-.24-2.76c-.08-1-.16-1.93-.22-2.89l-.45-5.84-.91-11.8c-.3-3.95-.71-7.91-1-11.93-.08-2-.16-4.06-.1-6.14a47.58,47.58,0,0,1,.5-6.4,42.78,42.78,0,0,1,6.58,10.89,62.13,62.13,0,0,1,2.17,5.84c.67,2,1.24,4,1.81,6a111.89,111.89,0,0,1,2.69,12.17c.33,2.05.63,4.12.81,6.21q.16,1.56.24,3.15c.06,1.07.08,2.07.07,3.28Z" fill="#592d3d"></path><path d="M506.7,235.5a369.62,369.62,0,0,0-42.48,4.93c-3.48.68-7,1.42-10.44,2.06s-6.9,1.61-10.35,2.41l-10.26,2.72c-3.4,1-6.77,2.08-10.15,3.12a314.87,314.87,0,0,0-39.44,15.73,348.17,348.17,0,0,0-37.24,21,183.41,183.41,0,0,1,35.08-25.14A219.23,219.23,0,0,1,421.18,245c3.48-1,6.94-2.09,10.42-3.05s7-1.82,10.55-2.6,7.1-1.4,10.65-2,7.16-1.07,10.74-1.52A190,190,0,0,1,506.7,235.5Z" fill="#ffffff"></path><path d="M600.89,460.57a318.14,318.14,0,0,1,33.51-6.65l-2.66.35c13.18-1.74,26.54-2.25,39.75-.48l-2.66-.36c3.27.46,6.54,1,9.82,1.42l-2.66-.36a221,221,0,0,1,29.48,6.11c5,1.39,11.1-1.73,12.3-7a10.19,10.19,0,0,0-7-12.3,239.21,239.21,0,0,0-34.59-6.78l2.66.36a143,143,0,0,0-33.44-1.95,235.08,235.08,0,0,0-33.09,4.55c-5.62,1.13-11.2,2.43-16.76,3.8-5.08,1.25-8.62,7.26-7,12.3a10.19,10.19,0,0,0,12.3,7Z" fill="#592d3d"></path><path d="M286.14,460.6a202.56,202.56,0,0,1,29.25-6.19l-2.66.36a195.53,195.53,0,0,1,51.38.08l-2.66-.35a218.94,218.94,0,0,1,29.45,6.1c5,1.4,11.1-1.73,12.3-7a10.19,10.19,0,0,0-7-12.3A227.26,227.26,0,0,0,352,433.6a208.27,208.27,0,0,0-71.22,7.71,10.39,10.39,0,0,0-6,4.6,10.2,10.2,0,0,0-1,7.7c1.65,5.11,6.91,8.54,12.3,7Z" fill="#592d3d"></path><g style="transform-origin: center center 0px;" transform="scale(1.12)"><circle cx="491.44" cy="157.14" r="47.48" fill="#633749"></circle><path d="M491.44,204.62a47.47,47.47,0,0,0,46.46-57.31c-30.78-4.77-62.7-2-93.77,6-.1,1.26-.17,2.53-.17,3.82A47.48,47.48,0,0,0,491.44,204.62Z" fill="#5E3244"></path><circle cx="491.44" cy="157.14" r="47.48" fill="none" stroke="#592d3d" stroke-miterlimit="10" stroke-width="12px"></circle><path d="M240.26,423.13a254.67,254.67,0,0,1,6.54-57.5q1.29-5.55,2.81-11c2.9-32.3,20-58.94,42.86-82.73,4.76-3.81,5.71-12.37,10.47-17.13,16.18-14.27,30.45-28.55,48.53-40,74.22-47.58,172.23-73.27,251.21-29.5,16.17,8.56,34.25,13.32,47.57,24.74,25.7,21.88,43.77,47.58,69.47,68.51,22.83,19,26.64,49.48,34.74,76.07q1.53,5.44,2.81,11a254.67,254.67,0,0,1,6.54,57.5Z" fill="#633749"></path><path d="M246.8,365.63a254.67,254.67,0,0,0-6.54,57.5h83C321.7,342.47,301,275.11,406,193,330.68,221.59,262.05,284.38,246.8,365.63Z" fill="#5E3244"></path><path d="M258.18,321.12a109.41,109.41,0,0,0-8.57,33.51q-1.52,5.44-2.81,11a254.67,254.67,0,0,0-6.54,57.5H440.31a827.17,827.17,0,0,1,127.59,0H763.81a254.67,254.67,0,0,0-6.54-57.5q-1.29-5.55-2.81-11c-3.46-11.37-6.15-23.44-9.86-35C582.71,259.73,419,261,258.18,321.12Z" fill="#5E3244"></path><path d="M240.26,423.13a254.67,254.67,0,0,1,6.54-57.5q1.29-5.55,2.81-11c2.9-32.3,20-58.94,42.86-82.73,4.76-3.81,5.71-12.37,10.47-17.13,16.18-14.27,30.45-28.55,48.53-40,74.22-47.58,172.23-73.27,251.21-29.5,16.17,8.56,34.25,13.32,47.57,24.74,25.7,21.88,43.77,47.58,69.47,68.51,22.83,19,26.64,49.48,34.74,76.07q1.53,5.44,2.81,11a254.67,254.67,0,0,1,6.54,57.5Z" fill="none" stroke="#592d3d" stroke-miterlimit="10" stroke-width="12px"></path><path d="M225.35,356.43c183.42-78,371.14-79.06,555.94,0,17.53,7.5,17.43,139.87,0,133.81-180.47-62.83-371.33-63.5-555.94,0C203.39,497.79,205.53,364.86,225.35,356.43Z" fill="#633749"></path><path d="M751.33,443.71a43.58,43.58,0,0,1,1.35,9.9c.09,3.27-.11,6.52-.26,9.78l-.36,4.87c-.16,1.62-.32,3.24-.52,4.85-.4,3.23-.89,6.44-1.59,9.61l-7.87-1.41c.44-3.17,1-6.31,1.64-9.45l1-4.71,1-4.7c.74-3.13,1.37-6.27,2.22-9.4A53.94,53.94,0,0,1,751.33,443.71Z" fill="#592d3d"></path><path d="M749.91,342.47a175.32,175.32,0,0,1,3.63,19c.43,3.19.78,6.39,1.09,9.59s.49,6.42.66,9.63c.26,6.42.37,12.84.06,19.25a114.35,114.35,0,0,1-2.45,19.11c-1-6.39-1.67-12.7-2.32-19s-1.21-12.55-2.05-18.78c-.39-3.12-.83-6.22-1.3-9.32s-1-6.19-1.52-9.27c-1.07-6.17-2.3-12.29-3.59-18.41Z" fill="#592d3d"></path><path d="M668.78,322c7.56,42.87,6.71,89.49,0,138.73" fill="none" stroke="#592d3d" stroke-miterlimit="10" stroke-width="8px"></path><path d="M598.19,307.61c5.15,42.9,4.57,89.55,0,138.83" fill="none" stroke="#592d3d" stroke-miterlimit="10" stroke-width="8px"></path><path d="M533.85,356.47a172.75,172.75,0,0,1,2.37,20.68c.4,6.9.52,13.8.65,20.71l0,10.36c0,3.45,0,6.9-.12,10.35-.15,6.9-.4,13.8-.87,20.69l-8-.4c.22-6.87.57-13.73.94-20.59l1.21-20.57c.46-6.86.82-13.73,1.35-20.6S532.69,363.36,533.85,356.47Z" fill="#592d3d"></path><path d="M535.93,299.88a58.54,58.54,0,0,1,.28,6.35c0,1.06-.05,2.12-.08,3.18L536,312.6c-.17,2.12-.32,4.25-.68,6.38a22.42,22.42,0,0,1-2.08,6.41,23.29,23.29,0,0,1-2.7-6.21c-.57-2.08-.93-4.16-1.31-6.25l-.49-3.12c-.13-1.05-.28-2.09-.39-3.13a55,55,0,0,1-.35-6.29Z" fill="#592d3d"></path><path d="M467.76,299.65c.35,43,.31,89.67,0,139" fill="none" stroke="#592d3d" stroke-miterlimit="10" stroke-width="8px"></path><path d="M403.38,306.18c-2.06,43-1.83,89.73,0,139.11" fill="none" stroke="#592d3d" stroke-miterlimit="10" stroke-width="8px"></path><path d="M333.37,391.65a161.31,161.31,0,0,1,2.71,16.78c.63,5.59,1.09,11.17,1.65,16.75l1.51,16.73c.47,5.57.93,11.15,1.25,16.74l-8,.64c-.58-5.61-.93-11.24-1.18-16.87-.13-2.82-.2-5.64-.28-8.46l-.1-8.46c0-5.64.05-11.29.35-16.93A117.52,117.52,0,0,1,333.37,391.65Z" fill="#592d3d"></path><path d="M340.48,320.18c-.25,3.65-.64,7.28-1.05,10.91l-.66,5.45-.72,5.45c-.54,3.64-.95,7.28-1.6,10.93a67.39,67.39,0,0,1-2.8,10.92,55.71,55.71,0,0,1-2-11.14c-.3-3.72-.32-7.42-.38-11.14l0-5.56c.06-1.86.11-3.71.2-5.56.2-3.71.49-7.41,1-11.09Z" fill="#592d3d"></path><path d="M264.86,340.45c-6.86,43-6.09,89.85,0,139.3" fill="none" stroke="#592d3d" stroke-miterlimit="10" stroke-width="8px"></path><path d="M753.07,434.58a3.75,3.75,0,1,0-3.75-3.75,3.8,3.8,0,0,0,3.75,3.75Z" fill="#592d3d"></path><path d="M758.28,341.38c10,42.84,8.85,89.43,0,138.64" fill="none" stroke="#5E3244" stroke-miterlimit="10" stroke-width="8px"></path><path d="M681,320c7.56,42.87,6.71,89.49,0,138.74" fill="none" stroke="#5E3244" stroke-miterlimit="10" stroke-width="8px"></path><path d="M610.38,305.45c5.15,42.9,4.57,89.55,0,138.83" fill="none" stroke="#5E3244" stroke-miterlimit="10" stroke-width="8px"></path><path d="M544.06,297.82c2.74,42.92,2.44,89.61,0,138.92" fill="none" stroke="#5E3244" stroke-miterlimit="10" stroke-width="8px"></path><path d="M479.8,297.16c.34,42.95.31,89.67,0,139" fill="none" stroke="#5E3244" stroke-miterlimit="10" stroke-width="8px"></path><path d="M415.34,303.53c-2.06,43-1.83,89.73,0,139.11" fill="none" stroke="#5E3244" stroke-miterlimit="10" stroke-width="8px"></path><path d="M348.41,317c-4.46,43-4,89.79,0,139.21" fill="none" stroke="#5E3244" stroke-miterlimit="10" stroke-width="8px"></path><path d="M276.74,337.64c-6.86,43-6.09,89.85,0,139.3" fill="none" stroke="#5E3244" stroke-miterlimit="10" stroke-width="8px"></path><path d="M225.35,356.43c183.42-78,371.14-79.06,555.94,0,17.53,7.5,17.43,139.87,0,133.81-180.47-62.83-371.33-63.5-555.94,0C203.39,497.79,205.53,364.86,225.35,356.43Z" fill="none" stroke="#592d3d" stroke-miterlimit="10" stroke-width="12px"></path><path d="M426.76,283.72A328.8,328.8,0,0,1,465.37,278c3.25-.28,6.49-.56,9.74-.78l9.75-.56c3.26-.14,6.51-.2,9.77-.3l9.77-.13c13,0,26.05.63,39,1.84a324.4,324.4,0,0,1,38.6,5.8c-13-.29-26-.79-38.88-1.13s-25.84-.49-38.75-.52h-9.68c-3.23,0-6.46.12-9.69.11l-9.68.14c-3.23.11-6.46.16-9.7.2C452.72,283,439.78,283.46,426.76,283.72Z" fill="#592d3d"></path><path d="M347.31,233.83a183.71,183.71,0,0,1,22.38-15.33c7.78-4.62,15.81-8.84,24-12.66,2-1,4.13-1.86,6.2-2.78s4.13-1.86,6.24-2.67c4.22-1.65,8.4-3.38,12.7-4.8a217,217,0,0,1,26.06-7.5c-2.07.91-4.16,1.78-6.25,2.63s-4.19,1.64-6.25,2.56c-4.15,1.74-8.31,3.42-12.43,5.22l-3.09,1.33c-1,.43-2.08.85-3.1,1.32l-6.15,2.73c-2.06.88-4.09,1.83-6.14,2.75s-4.09,1.84-6.1,2.83l-6.1,2.83c-2,1-4,2-6.05,3-4,1.94-8,4-12.05,6C363.19,225.31,355.23,229.48,347.31,233.83Z" fill="#ffffff"></path></g></g></svg>